<svg width="24" height="24" viewBox="0 0 24 24" fill="none" xmlns="http://www.w3.org/2000/svg">
  <path d="M3 3L21 21" stroke="#8A5A36" stroke-width="1.8" stroke-linecap="round" stroke-linejoin="round"/>
  <path d="M10.6 6.2C11.1 6.07 11.55 6 12 6C16.4 6 20.1 8.2 22 12C21.18 13.65 20.05 15 18.69 16" stroke="#8A5A36" stroke-width="1.8" stroke-linecap="round" stroke-linejoin="round"/>
  <path d="M6.18 7.16C4.45 8.19 3.02 9.84 2 12C3.9 15.8 7.6 18 12 18C13.58 18 15.07 17.72 16.42 17.19" stroke="#8A5A36" stroke-width="1.8" stroke-linecap="round" stroke-linejoin="round"/>
  <path d="M9.88 9.88C9.34 10.42 9 11.17 9 12C9 13.66 10.34 15 12 15C12.83 15 13.58 14.66 14.12 14.12" stroke="#8A5A36" stroke-width="1.8" stroke-linecap="round" stroke-linejoin="round"/>
</svg>
