<svg xmlns="http://www.w3.org/2000/svg" width="240" height="240" viewBox="0 0 24 24" fill="none" stroke="#D1D5DB" stroke-width="1" stroke-linecap="round" stroke-linejoin="round">
  <path d="M21 16V8a2 2 0 0 0-1-1.73l-7-4a2 2 0 0 0-2 0l-7 4A2 2 0 0 0 3 8v8a2 2 0 0 0 1 1.73l7 4a2 2 0 0 0 2 0l7-4A2 2 0 0 0 21 16z"></path>
  <polyline points="3.27 6.96 12 12.01 20.73 6.96"></polyline>
  <line x1="12" y1="22.08" x2="12" y2="12"></line>
  <path stroke-dasharray="2 2" d="M12 12l4-2.5"></path>
  <circle cx="12" cy="12" r="1.5" fill="#E5E7EB" stroke="none"></circle>
</svg>
